# xmcd
#
# Track frame offsets: 
#        150
#        22280
#        49414
#        77358
#        95626
#        119737
#        184592
#        200550
#        225192
#        262526
#        286094
#
# Disc length: 4089 seconds
#
# Revision: 0
# Processed by: cddbd v1.5.2PL0 Copyright (c) Steve Scherf et al.
# Submitted via: ExactAudioCopy v1.0b1
#
DISCID=8d0ff70b
DTITLE=Webster Lewis - Touch My Love
DYEAR=1978
DGENRE=Funk
TTITLE0=Hideaway 
TTITLE1=Barbara Ann
TTITLE2=There's A Happy Feeling 
TTITLE3=Touch My Love 
TTITLE4=Believe In Yourself
TTITLE5=Seasons 
TTITLE6=Loving 
TTITLE7=Wee Church 
TTITLE8=Japanese Umbrella 
TTITLE9=Spirit Of Love
TTITLE10=Touch My Love ( Alternative Mix)
EXTD=
EXTT0=
EXTT1=
EXTT2=
EXTT3=
EXTT4=
EXTT5=
EXTT6=
EXTT7=
EXTT8=
EXTT9=
EXTT10=
PLAYORDER=
